<svg width="124" height="41" viewBox="0 0 124 41" fill="none" xmlns="http://www.w3.org/2000/svg">
<g id="Group 7">
<path id="Vector" d="M123.352 35.0282C123.352 37.7954 121.11 40.0375 118.343 40.0375H5.4733C2.7062 40.0375 0.464022 37.7931 0.464022 35.0282V5.47331C0.464022 2.70607 2.70607 0.464022 5.4733 0.464022H118.343C121.108 0.464022 123.352 2.7062 123.352 5.47331V35.0282Z" stroke="white" stroke-width="0.928044"/>
<g id="PLAY-2">
<g id="Clip path group">
<mask id="mask0_97_3762" style="mask-type:luminance" maskUnits="userSpaceOnUse" x="9" y="8" width="24" height="27">
<g id="clippath-1">
<path id="Vector_2" d="M26.8318 17.8288L21.2496 14.6044C21.2496 14.6044 11.0776 8.73165 10.4797 8.38548C9.88176 8.03932 9.28625 8.24992 9.28625 8.9713V34.3044C9.28625 34.8442 9.71231 35.079 10.2303 34.7789C10.7508 34.4787 21.2472 28.4172 21.2472 28.4172L26.8294 25.1951C26.8294 25.1951 31.5668 22.4597 32.1962 22.0966C32.8256 21.7335 32.7651 21.2348 32.2349 20.9467C31.7048 20.6611 26.8318 17.8264 26.8318 17.8264V17.8288Z" fill="white"/>
</g>
</mask>
<g mask="url(#mask0_97_3762)">
<g id="Group">
<path id="Vector_3" d="M9.28601 7.79736V21.5109V35.2268L23.1181 21.5133L9.28601 7.79736Z" fill="white" fill-opacity="0.7"/>
<path id="Vector_4" d="M26.8317 17.8289L21.2495 14.6045L9.28613 7.69812V7.79737L23.1183 21.5133L26.8317 17.8289Z" fill="white" fill-opacity="0.5"/>
<path id="Vector_5" d="M9.28601 35.2268V35.3261L21.2493 28.4197L26.8316 25.1953L23.1181 21.5133L9.28601 35.2268Z" fill="white" fill-opacity="0.5"/>
<path id="Vector_6" d="M26.8315 17.8289L23.118 21.5132L26.8315 25.1952L33.2126 21.5108L26.8315 17.8289Z" fill="white" fill-opacity="0.8"/>
</g>
</g>
</g>
</g>
<path id="Vector_7" d="M96.3605 26.8727C95.8401 26.8727 95.368 26.7758 94.9371 26.5846C94.5086 26.3934 94.148 26.098 93.855 25.701H93.7679C93.826 26.1658 93.855 26.6088 93.855 27.0252V30.3077H92.6471V18.7511H93.6299L93.7969 19.8428H93.855C94.1649 19.4071 94.528 19.09 94.9395 18.8963C95.3511 18.7027 95.8255 18.6058 96.3581 18.6058C97.416 18.6058 98.2318 18.9665 98.8079 19.6903C99.3816 20.4141 99.6697 21.4284 99.6697 22.7332C99.6697 24.038 99.3768 25.062 98.7934 25.7858C98.2075 26.512 97.3966 26.8727 96.3581 26.8727H96.3605ZM96.1862 19.6322C95.3704 19.6322 94.7822 19.8574 94.4191 20.31C94.056 20.7603 93.8672 21.4793 93.8575 22.4645V22.7332C93.8575 23.854 94.0439 24.6553 94.4191 25.1394C94.7919 25.6212 95.3922 25.8632 96.2153 25.8632C96.9052 25.8632 97.445 25.5848 97.8347 25.0256C98.2245 24.4689 98.4206 23.6991 98.4206 22.7187C98.4206 21.7383 98.2245 20.9612 97.8347 20.4287C97.445 19.8961 96.8931 19.6322 96.1862 19.6322Z" fill="#F9F9F9"/>
<path id="Vector_8" d="M102.468 26.7274H101.26V15.4032H102.468V26.7274Z" fill="#F9F9F9"/>
<path id="Vector_9" d="M109.415 26.7275L109.176 25.5921H109.117C108.72 26.0932 108.323 26.4297 107.926 26.6064C107.532 26.7831 107.038 26.8727 106.445 26.8727C105.653 26.8727 105.034 26.6694 104.586 26.2603C104.138 25.8511 103.913 25.2726 103.913 24.5222C103.913 22.9124 105.201 22.0675 107.776 21.9901L109.13 21.9465V21.4527C109.13 20.8257 108.994 20.3633 108.725 20.0656C108.457 19.7678 108.026 19.6177 107.433 19.6177C106.767 19.6177 106.016 19.8211 105.176 20.2302L104.806 19.3054C105.198 19.0924 105.629 18.9254 106.099 18.8044C106.566 18.6833 107.036 18.6228 107.508 18.6228C108.459 18.6228 109.163 18.8334 109.621 19.257C110.078 19.6782 110.308 20.3561 110.308 21.288V26.7323H109.413L109.415 26.7275ZM106.687 25.8754C107.44 25.8754 108.028 25.6696 108.459 25.2581C108.887 24.8465 109.103 24.268 109.103 23.5248V22.8034L107.895 22.8543C106.934 22.8882 106.242 23.0382 105.818 23.3021C105.394 23.566 105.181 23.9775 105.181 24.5367C105.181 24.9724 105.312 25.3065 105.578 25.534C105.842 25.7616 106.213 25.8754 106.689 25.8754H106.687Z" fill="#F9F9F9"/>
<path id="Vector_10" d="M111.011 18.7511H112.306L114.053 23.2997C114.436 24.3382 114.676 25.0886 114.768 25.5485H114.826C114.889 25.3016 115.022 24.878 115.223 24.2777C115.424 23.6773 116.082 21.8375 117.198 18.7511H118.493L115.065 27.8337C114.726 28.7318 114.329 29.3685 113.874 29.7437C113.422 30.1189 112.865 30.3077 112.204 30.3077C111.836 30.3077 111.471 30.2666 111.112 30.1843V29.216C111.379 29.2741 111.679 29.3031 112.008 29.3031C112.838 29.3031 113.429 28.8383 113.785 27.9064L114.228 26.771L111.011 18.7511Z" fill="#F9F9F9"/>
<path id="Vector_11" d="M73.9801 19.4918C74.3626 19.8089 75.1638 20.4771 75.1638 21.7455C75.1638 23.014 74.4642 23.5635 73.7622 24.1155C73.5443 24.3309 73.295 24.5657 73.295 24.9337C73.295 25.3016 73.5444 25.5001 73.7283 25.6502L74.3287 26.1174C75.0622 26.7347 75.7303 27.3036 75.7303 28.4534C75.7303 30.0221 74.2125 31.6052 71.3439 31.6052C68.9231 31.6052 67.7563 30.4554 67.7563 29.2184C67.7563 28.618 68.0565 27.7684 69.0418 27.1825C70.0754 26.5483 71.477 26.466 72.2275 26.4152C71.9927 26.115 71.7264 25.7979 71.7264 25.2822C71.7264 24.999 71.8111 24.832 71.8934 24.6311C71.7094 24.648 71.5254 24.665 71.3584 24.665C69.5913 24.665 68.5891 23.3456 68.5891 22.0457C68.5891 21.2783 68.9401 20.4262 69.6566 19.8089C70.608 19.0246 71.7433 18.8915 72.6438 18.8915H76.0789L75.0113 19.4918H73.9777H73.9801ZM72.7963 26.8993C72.6632 26.8824 72.5785 26.8824 72.4139 26.8824C72.2638 26.8824 71.3608 26.9162 70.6612 27.1511C70.2933 27.2842 69.2257 27.6836 69.2257 28.8698C69.2257 30.056 70.378 30.9056 72.1621 30.9056C73.7622 30.9056 74.6143 30.1358 74.6143 29.1022C74.6143 28.2501 74.0624 27.7998 72.7963 26.8993ZM73.2805 23.7281C73.663 23.3432 73.6969 22.8107 73.6969 22.5105C73.6969 21.3098 72.9803 19.441 71.5957 19.441C71.1623 19.441 70.6951 19.6564 70.4264 19.9929C70.1432 20.3439 70.0585 20.7942 70.0585 21.2275C70.0585 22.3459 70.7097 24.1978 72.1452 24.1978C72.5615 24.1978 73.0118 23.9968 73.2805 23.7305V23.7281Z" fill="#F9F9F9"/>
<path id="Vector_12" d="M63.4767 26.6331C60.8284 26.6331 59.4122 24.5682 59.4122 22.7018C59.4122 20.5207 61.1939 18.6543 63.726 18.6543C66.2581 18.6543 67.7057 20.5691 67.7057 22.5856C67.7057 24.6021 66.1903 26.6331 63.4742 26.6331H63.4767ZM65.5585 25.2847C65.9579 24.7522 66.0596 24.084 66.0596 23.4353C66.0596 21.9683 65.36 19.1699 63.2951 19.1699C62.7456 19.1699 62.1961 19.3878 61.7967 19.7364C61.1479 20.3198 61.0293 21.0508 61.0293 21.7698C61.0293 23.4183 61.8451 26.132 63.8616 26.132C64.5103 26.132 65.1784 25.8173 65.5585 25.2847Z" fill="#F9F9F9"/>
<path id="Vector_13" d="M54.4497 26.6331C51.8014 26.6331 50.3853 24.5682 50.3853 22.7018C50.3853 20.5207 52.1669 18.6543 54.699 18.6543C57.2311 18.6543 58.6787 20.5691 58.6787 22.5856C58.6787 24.6021 57.1633 26.6331 54.4473 26.6331H54.4497ZM56.5315 25.2847C56.9309 24.7522 57.0326 24.084 57.0326 23.4353C57.0326 21.9683 56.333 19.1699 54.2681 19.1699C53.7186 19.1699 53.1691 19.3878 52.7697 19.7364C52.1209 20.3198 52.0023 21.0508 52.0023 21.7698C52.0023 23.4183 52.8181 26.132 54.8346 26.132C55.4833 26.132 56.149 25.8173 56.5339 25.2847H56.5315Z" fill="#F9F9F9"/>
<path id="Vector_14" d="M49.1126 26.3717L46.7185 26.9236C45.7478 27.0737 44.8763 27.2068 43.9564 27.2068C39.3328 27.2068 37.5753 23.8081 37.5753 21.1453C37.5753 17.8966 40.0711 14.8828 44.3413 14.8828C45.2467 14.8828 46.1157 15.016 46.9024 15.2338C48.1588 15.5848 48.7446 16.0206 49.1126 16.2723L47.7231 17.5941L47.1373 17.7272L47.556 17.0566C46.9872 16.5047 45.9487 15.4832 43.9733 15.4832C41.3275 15.4832 39.3352 17.4924 39.3352 20.4239C39.3352 23.5709 41.6131 26.5363 45.2636 26.5363C46.336 26.5363 46.8879 26.3184 47.3914 26.1175V23.4208L44.8642 23.5539L46.2029 22.8325H49.7541L49.3184 23.2513C49.1997 23.353 49.1852 23.3869 49.1513 23.52C49.1344 23.6701 49.1174 24.1567 49.1174 24.3237V26.3668L49.1126 26.3717Z" fill="#F9F9F9"/>
<path id="Vector_15" d="M79.2723 25.8898C78.7203 25.839 78.6041 25.7397 78.6041 25.0861V15.6089C78.6066 15.5726 78.609 15.5363 78.6138 15.5C78.6816 14.9142 78.8486 14.8125 79.3691 14.5123H76.9726L75.7162 15.1151H76.9968V24.8997V25.4541C76.9968 25.7882 76.9314 25.839 76.5441 26.3401H79.5095L80.1292 25.9721C79.846 25.9382 79.5603 25.9213 79.2747 25.8874L79.2723 25.8898Z" fill="#F9F9F9"/>
<path id="Vector_16" d="M86.0864 26.0448C85.9048 26.144 85.7209 26.2626 85.5393 26.3449C84.9898 26.5943 84.4233 26.6621 83.9247 26.6621C83.3945 26.6621 82.5618 26.6282 81.7121 26.0133C80.5332 25.1806 80.0176 23.7499 80.0176 22.5032C80.0176 19.9251 82.1139 18.6615 83.8254 18.6615C84.4233 18.6615 85.0406 18.8116 85.5393 19.1263C86.3696 19.6734 86.5875 20.3899 86.7013 20.7724L82.7942 22.3531L81.5136 22.4524C81.9276 24.5633 83.3582 25.793 84.939 25.793C85.7862 25.793 86.4035 25.4953 86.9675 25.212L86.0864 26.0423V26.0448ZM84.525 21.0871C84.8397 20.9709 85.0067 20.8716 85.0067 20.6392C85.0067 19.9735 84.2587 19.2086 83.3606 19.2086C82.6949 19.2086 81.4482 19.7242 81.4482 21.5204C81.4482 21.8036 81.4821 22.1014 81.4991 22.4015L84.525 21.0871Z" fill="#F9F9F9"/>
<path id="Vector_17" d="M87.6939 18.7728V19.8694H87.5607V18.7728H87.1976V18.6591H88.057V18.7728H87.6939Z" fill="#F9F9F9"/>
<path id="Vector_18" d="M89.19 19.8719V18.7632H89.1828L88.8439 19.8719H88.7398L88.3985 18.7632H88.3936V19.8719H88.2726V18.6615H88.4808L88.7882 19.6395H88.793L89.0956 18.6615H89.3062V19.8719H89.1852H89.19Z" fill="#F9F9F9"/>
<path id="Vector_19" d="M40.8989 11.6244H40.0661C40.0661 11.5106 39.9862 11.1863 39.8289 10.6513H38.6282C38.466 11.1766 38.3837 11.501 38.3837 11.6244H37.6018C37.6018 11.5566 37.8051 11.0023 38.2094 9.95894C38.6137 8.91802 38.817 8.34431 38.817 8.23779H39.7998C39.7998 8.33704 39.9838 8.90108 40.3493 9.93473C40.7149 10.966 40.8989 11.53 40.8989 11.6244ZM39.6982 10.155C39.4028 9.25935 39.2528 8.77762 39.2528 8.705H39.2116C39.2116 8.77278 39.0591 9.25693 38.7517 10.155H39.6982Z" fill="#FCFCFD"/>
<path id="Vector_20" d="M44.254 11.6244H43.6126C43.6126 11.5542 43.3753 11.179 42.8984 10.4988C42.3998 9.78223 42.1141 9.29324 42.0463 9.02938H42.0052C42.0488 9.40943 42.0705 9.75318 42.0705 10.0582C42.0705 10.4867 42.0826 11.0071 42.1068 11.6244H41.4678C41.4944 11.087 41.5065 10.4963 41.5065 9.85243C41.5065 9.20851 41.4944 8.68079 41.4678 8.23779H42.24C42.24 8.32978 42.453 8.69531 42.8815 9.33681C43.3366 10.017 43.598 10.4794 43.6658 10.7239H43.7045C43.6634 10.3366 43.6416 9.99041 43.6416 9.68298C43.6416 9.21335 43.6295 8.73162 43.6053 8.23779H44.2565C44.2323 8.66869 44.2202 9.20609 44.2202 9.85243C44.2202 10.4988 44.2323 11.0943 44.2565 11.6244H44.254Z" fill="#FCFCFD"/>
<path id="Vector_21" d="M48.0229 9.81369C48.0229 10.3051 47.8656 10.736 47.5485 11.104C47.2338 11.4719 46.7908 11.6559 46.2219 11.6559C45.9653 11.6559 45.6119 11.6462 45.1616 11.6244C45.1834 11.1015 45.1955 10.5109 45.1955 9.85243C45.1955 9.19398 45.1834 8.68321 45.1616 8.23779H45.6167C45.6918 8.23779 45.8031 8.23537 45.9484 8.23053C46.096 8.22569 46.1929 8.22327 46.2364 8.22327C46.861 8.22327 47.3161 8.37819 47.5969 8.69047C47.8777 9.00274 48.0205 9.37796 48.0205 9.81369H48.0229ZM47.3137 9.92505C47.3137 9.59099 47.2168 9.3126 47.0232 9.08263C46.8295 8.85508 46.5318 8.74131 46.1348 8.74131C46.0597 8.74131 45.958 8.74857 45.8273 8.76551C45.8443 9.11168 45.854 9.47479 45.854 9.85243C45.854 10.2664 45.8636 10.6779 45.8806 11.0846C45.9944 11.1064 46.1057 11.1185 46.2195 11.1185C46.5923 11.1185 46.8682 11.0023 47.0474 10.7723C47.2265 10.5399 47.3161 10.2591 47.3161 9.92505H47.3137Z" fill="#FCFCFD"/>
<path id="Vector_22" d="M51.4963 11.6244H50.7265C50.5255 11.0096 50.3706 10.6319 50.2641 10.4891C50.1576 10.3463 49.9833 10.2737 49.7436 10.2737C49.642 10.2737 49.5476 10.2737 49.4556 10.2761C49.4556 10.7215 49.4628 11.1718 49.4798 11.6269H48.756C48.7778 11.104 48.7899 10.5133 48.7899 9.85487C48.7899 9.19643 48.7778 8.68565 48.756 8.24023H49.2062C49.2571 8.24023 49.366 8.23781 49.533 8.23297C49.6976 8.22813 49.8526 8.22571 49.993 8.22571C50.7894 8.22571 51.1864 8.49683 51.1864 9.0415C51.1864 9.47239 50.9589 9.77499 50.5062 9.94444V9.98317C50.6805 10.0316 50.8354 10.1671 50.9661 10.3923C51.0968 10.6174 51.276 11.0289 51.4987 11.6269L51.4963 11.6244ZM50.5207 9.23274C50.5207 8.88899 50.298 8.7147 49.855 8.7147C49.6928 8.7147 49.5476 8.7268 49.4241 8.75101C49.4435 9.01971 49.4532 9.37072 49.4532 9.80161C49.5476 9.80403 49.6299 9.80645 49.6952 9.80645C50.2472 9.80645 50.5231 9.61522 50.5231 9.23274H50.5207Z" fill="#FCFCFD"/>
<path id="Vector_23" d="M55.2245 9.86935C55.2245 10.4019 55.0624 10.8425 54.7356 11.1935C54.4088 11.5445 54.0069 11.7188 53.5252 11.7188C53.0435 11.7188 52.6852 11.559 52.3753 11.2371C52.0679 10.9151 51.913 10.506 51.913 10.0122C51.913 9.47961 52.0752 9.03903 52.402 8.68802C52.7288 8.33701 53.1306 8.16272 53.6123 8.16272C54.0941 8.16272 54.4523 8.32249 54.7622 8.64445C55.0696 8.9664 55.2245 9.37309 55.2245 9.87177V9.86935ZM54.508 9.94439C54.508 9.58128 54.416 9.28837 54.2296 9.06324C54.0432 8.83811 53.8157 8.72433 53.5421 8.72433C53.2879 8.72433 53.0749 8.83811 52.8982 9.06566C52.7215 9.29321 52.6319 9.57885 52.6319 9.92744C52.6319 10.276 52.7239 10.581 52.9103 10.8086C53.0967 11.0337 53.3243 11.1475 53.5954 11.1475C53.8496 11.1475 54.0626 11.0337 54.2393 10.8062C54.416 10.5786 54.5056 10.293 54.5056 9.94681L54.508 9.94439Z" fill="#FCFCFD"/>
<path id="Vector_24" d="M56.694 11.6244H55.9581C55.9799 11.087 55.992 10.4963 55.992 9.85243C55.992 9.20851 55.9799 8.68079 55.9581 8.23779H56.694C56.6722 8.67353 56.6601 9.21335 56.6601 9.85243C56.6601 10.4915 56.6722 11.0967 56.694 11.6244Z" fill="#FCFCFD"/>
<path id="Vector_25" d="M60.463 9.81369C60.463 10.3051 60.3057 10.736 59.9885 11.104C59.6738 11.4719 59.2308 11.6559 58.662 11.6559C58.4054 11.6559 58.0519 11.6462 57.6017 11.6244C57.6235 11.1015 57.6356 10.5109 57.6356 9.85243C57.6356 9.19398 57.6235 8.68321 57.6017 8.23779H58.0568C58.1318 8.23779 58.2432 8.23537 58.3908 8.23053C58.5385 8.22569 58.6353 8.22327 58.6789 8.22327C59.3035 8.22327 59.7586 8.37819 60.0394 8.69047C60.3202 9.00274 60.463 9.37796 60.463 9.81369ZM59.7537 9.92505C59.7537 9.59099 59.6569 9.3126 59.4632 9.08263C59.2696 8.85508 58.9718 8.74131 58.5748 8.74131C58.4998 8.74131 58.3981 8.74857 58.2674 8.76551C58.2843 9.11168 58.294 9.47479 58.294 9.85243C58.294 10.2664 58.3037 10.6779 58.3206 11.0846C58.4344 11.1064 58.5458 11.1185 58.6596 11.1185C59.0323 11.1185 59.3083 11.0023 59.4874 10.7723C59.6666 10.5399 59.7562 10.2591 59.7562 9.92505H59.7537Z" fill="#FCFCFD"/>
<path id="Vector_26" d="M65.4644 11.6244H64.6317C64.6317 11.5106 64.5518 11.1863 64.3944 10.6513H63.1938C63.0316 11.1766 62.9493 11.501 62.9493 11.6244H62.1674C62.1674 11.5566 62.3707 11.0023 62.775 9.95894C63.1792 8.91802 63.3826 8.34431 63.3826 8.23779H64.3654C64.3654 8.33704 64.5494 8.90108 64.9149 9.93473C65.2804 10.966 65.4644 11.53 65.4644 11.6244ZM64.2637 10.155C63.9684 9.25935 63.8183 8.77762 63.8183 8.705H63.7772C63.7772 8.77278 63.6246 9.25693 63.3172 10.155H64.2637Z" fill="#FCFCFD"/>
<path id="Vector_27" d="M68.4976 9.12377C68.4976 9.53771 68.3427 9.84515 68.0352 10.0412C67.7278 10.2397 67.3501 10.3366 66.9023 10.3366C66.82 10.3366 66.7619 10.3366 66.728 10.3317C66.728 10.6585 66.7377 11.087 66.7571 11.622H66.026C66.0478 11.1209 66.0599 10.5302 66.0599 9.84999C66.0599 9.22544 66.0478 8.68803 66.026 8.23535H66.4787C66.5416 8.23535 66.6651 8.23293 66.8491 8.22809C67.0306 8.22325 67.188 8.22083 67.3235 8.22083C67.6527 8.22083 67.9311 8.29587 68.1587 8.44353C68.3862 8.59362 68.5 8.81875 68.5 9.12134L68.4976 9.12377ZM67.827 9.26659C67.827 8.89621 67.5801 8.70982 67.0887 8.70982C66.9653 8.70982 66.8345 8.72192 66.699 8.74855C66.7183 9.07535 66.728 9.44814 66.728 9.86209C66.7716 9.86451 66.8224 9.86693 66.8781 9.86693C67.5099 9.86693 67.827 9.66601 67.827 9.26659Z" fill="#FCFCFD"/>
<path id="Vector_28" d="M71.6155 9.12377C71.6155 9.53771 71.4606 9.84515 71.1531 10.0412C70.8457 10.2397 70.4681 10.3366 70.0202 10.3366C69.9379 10.3366 69.8798 10.3366 69.8459 10.3317C69.8459 10.6585 69.8556 11.087 69.875 11.622H69.1439C69.1657 11.1209 69.1778 10.5302 69.1778 9.84999C69.1778 9.22544 69.1657 8.68803 69.1439 8.23535H69.5966C69.6595 8.23535 69.783 8.23293 69.967 8.22809C70.1485 8.22325 70.3059 8.22083 70.4414 8.22083C70.7707 8.22083 71.049 8.29587 71.2766 8.44353C71.5041 8.59362 71.6179 8.81875 71.6179 9.12134L71.6155 9.12377ZM70.945 9.26659C70.945 8.89621 70.698 8.70982 70.2066 8.70982C70.0832 8.70982 69.9524 8.72192 69.8169 8.74855C69.8363 9.07535 69.8459 9.44814 69.8459 9.86209C69.8895 9.86451 69.9403 9.86693 69.996 9.86693C70.6278 9.86693 70.945 9.66601 70.945 9.26659Z" fill="#FCFCFD"/>
<path id="Vector_29" d="M76.7154 9.86935C76.7154 10.4019 76.5532 10.8425 76.2264 11.1935C75.8996 11.5445 75.4978 11.7188 75.016 11.7188C74.5343 11.7188 74.176 11.559 73.8662 11.2371C73.5587 10.9151 73.4038 10.506 73.4038 10.0122C73.4038 9.47961 73.566 9.03903 73.8928 8.68802C74.2196 8.33701 74.6214 8.16272 75.1032 8.16272C75.5849 8.16272 75.9432 8.32249 76.253 8.64445C76.5605 8.9664 76.7154 9.37309 76.7154 9.87177V9.86935ZM75.9988 9.94439C75.9988 9.58128 75.9069 9.28837 75.7205 9.06324C75.5341 8.83811 75.3065 8.72433 75.033 8.72433C74.7788 8.72433 74.5658 8.83811 74.389 9.06566C74.2123 9.29321 74.1228 9.57885 74.1228 9.92744C74.1228 10.276 74.2148 10.581 74.4036 10.8086C74.59 11.0337 74.8175 11.1475 75.0886 11.1475C75.3428 11.1475 75.5559 11.0337 75.7326 10.8062C75.9093 10.5786 75.9988 10.293 75.9988 9.94681V9.94439Z" fill="#FCFCFD"/>
<path id="Vector_30" d="M80.2407 11.6244H79.5993C79.5993 11.5542 79.362 11.179 78.8851 10.4988C78.3865 9.78223 78.1008 9.29324 78.033 9.02938H77.9919C78.0354 9.40943 78.0572 9.75318 78.0572 10.0582C78.0572 10.4867 78.0693 11.0071 78.0935 11.6244H77.4545C77.4811 11.087 77.4932 10.4963 77.4932 9.85243C77.4932 9.20851 77.4811 8.68079 77.4545 8.23779H78.2267C78.2267 8.32978 78.4397 8.69531 78.8682 9.33681C79.3233 10.017 79.5847 10.4794 79.6525 10.7239H79.6912C79.6501 10.3366 79.6283 9.99041 79.6283 9.68298C79.6283 9.21335 79.6162 8.73162 79.592 8.23779H80.2432C80.219 8.66869 80.2069 9.20609 80.2069 9.85243C80.2069 10.4988 80.219 11.0943 80.2432 11.6244H80.2407Z" fill="#FCFCFD"/>
</g>
</svg>
