<svg version="1.0" xmlns="http://www.w3.org/2000/svg"
 width="640.000000pt" height="1280.000000pt" viewBox="0 0 640.000000 1280.000000"
 preserveAspectRatio="xMidYMid meet">
<g transform="translate(0.000000,1280.000000) scale(0.100000,-0.100000)"
fill="none" stroke="var(--player-color)" stroke-width="30">
<path d="M3108 12784 c-90 -19 -148 -45 -225 -100 -142 -102 -221 -254 -243
-472 -12 -114 -6 -197 17 -252 8 -19 19 -84 24 -145 14 -181 68 -335 148 -427
35 -39 41 -53 47 -109 8 -82 -9 -175 -38 -206 -75 -80 -270 -140 -598 -183
-335 -44 -430 -65 -524 -114 -113 -59 -172 -199 -213 -511 -24 -179 -23 -743
1 -1040 30 -372 84 -809 126 -1013 16 -82 17 -98 5 -132 -39 -110 -50 -211
-49 -460 1 -303 6 -351 114 -975 62 -366 76 -461 100 -710 21 -216 77 -371
178 -492 49 -58 52 -66 52 -117 0 -130 45 -615 91 -976 35 -273 57 -419 101
-655 l31 -170 -21 -165 c-47 -366 -59 -628 -43 -930 18 -321 43 -500 141 -995
67 -342 100 -552 100 -642 0 -51 3 -64 19 -73 11 -5 25 -26 31 -45 16 -49 1
-116 -71 -310 -33 -87 -62 -178 -66 -200 -5 -38 -2 -43 35 -77 65 -59 138 -81
267 -82 154 -1 254 29 309 94 33 40 34 86 5 213 -20 84 -21 119 -20 407 0 173
3 338 6 365 14 129 86 920 100 1085 31 383 45 663 45 920 0 156 5 283 11 310
7 27 12 179 14 375 1 182 7 389 13 460 19 213 82 1447 82 1604 0 46 3 81 6 78
12 -11 33 -769 33 -1172 1 -387 -2 -427 -34 -600 -13 -67 -19 -182 -25 -455
-5 -201 -14 -437 -20 -525 -14 -193 -8 -792 16 -1390 24 -628 23 -715 -10
-945 -15 -107 -28 -231 -27 -275 0 -44 -9 -141 -20 -215 -12 -74 -19 -152 -16
-173 11 -84 96 -128 260 -135 165 -7 296 26 375 94 38 32 42 40 42 80 0 26
-21 109 -51 202 -34 104 -53 181 -56 227 -5 66 -3 73 22 103 23 28 28 45 36
139 15 161 43 326 105 611 30 142 69 320 85 397 119 551 179 1076 179 1561 0
82 6 140 25 220 98 439 178 1007 216 1554 l13 175 42 45 c135 146 180 285 214
660 6 68 15 140 20 160 5 19 13 71 20 115 6 44 39 211 75 370 120 543 145 714
145 980 0 169 -15 299 -44 382 -8 23 -10 49 -5 66 13 47 47 396 66 662 12 175
17 384 17 695 1 463 -7 597 -45 828 -34 206 -74 303 -152 365 -103 82 -206
119 -522 186 -322 69 -467 120 -542 191 -32 29 -38 59 -38 196 l0 121 42 46
c94 101 142 246 150 447 4 107 9 144 25 178 19 40 20 50 9 155 -26 245 -121
392 -315 487 -135 67 -274 85 -418 54z m-964 -3709 c46 -256 95 -614 112 -822
6 -76 4 -86 -25 -156 -35 -86 -74 -206 -94 -292 -14 -58 -14 -56 -9 85 3 86 0
160 -6 182 -8 30 -6 49 9 97 10 33 24 119 30 191 16 175 -2 488 -47 815 -14
100 5 36 30 -100z m2176 -690 c14 -123 35 -223 55 -272 11 -27 13 -44 6 -63
-25 -66 -51 -272 -51 -404 0 -33 -2 -57 -5 -54 -3 3 -12 58 -20 124 -16 130
-58 374 -80 470 -16 70 -11 137 41 539 l29 220 6 -230 c4 -126 12 -275 19
-330z"/>
</g>
</svg>
